<?xml version="1.0" standalone="no"?>
<!DOCTYPE svg PUBLIC "-//W3C//DTD SVG 20010904//EN"
 "http://www.w3.org/TR/2001/REC-SVG-20010904/DTD/svg10.dtd">
<svg version="1.0" xmlns="http://www.w3.org/2000/svg"
 width="1280.000000pt" height="1280.000000pt" viewBox="0 0 1280.000000 1280.000000"
 preserveAspectRatio="xMidYMid meet">
<metadata>
Created by potrace 1.11, written by Peter Selinger 2001-2013
</metadata>
<g transform="translate(0.000000,1280.000000) scale(0.100000,-0.100000)"
fill="#000000" stroke="none">
<path d="M6065 12794 c-182 -13 -337 -27 -445 -40 -2456 -299 -4533 -2006
-5303 -4359 -158 -483 -249 -931 -299 -1480 -17 -185 -17 -865 0 -1040 56
-566 142 -990 299 -1470 631 -1930 2158 -3457 4088 -4088 483 -158 931 -249
1480 -299 186 -17 844 -17 1030 0 549 50 997 141 1480 299 1930 631 3457 2158
4088 4088 157 480 243 904 299 1470 17 175 17 855 0 1040 -62 677 -202 1273
-433 1851 -706 1766 -2156 3129 -3954 3717 -465 152 -894 241 -1410 293 -149
15 -790 27 -920 18z m850 -479 c1513 -134 2893 -824 3904 -1950 817 -912 1327
-2032 1475 -3245 42 -341 54 -861 28 -1170 -61 -718 -215 -1324 -503 -1982
-19 -43 -37 -77 -41 -75 -6 2 -3074 4238 -3309 4568 -85 120 -161 189 -264
240 -107 52 -179 69 -298 69 -106 0 -180 -15 -269 -54 -31 -14 -295 -184 -588
-380 l-533 -355 -560 747 c-308 411 -584 775 -614 809 -237 273 -670 295 -932
47 -44 -41 -105 -118 -169 -212 -55 -81 -838 -1245 -1741 -2587 -904 -1342
-1648 -2446 -1655 -2453 -21 -22 -167 440 -237 749 -99 442 -143 844 -143
1319 0 385 20 635 80 995 358 2148 1899 3946 3974 4638 526 176 1022 267 1640
301 130 7 589 -4 755 -19z m-1961 -3045 c28 -17 225 -272 744 -964 387 -518
706 -943 708 -945 2 -2 322 208 711 467 757 505 747 498 842 479 31 -6 54 -20
83 -50 22 -23 818 -1119 1770 -2436 l1730 -2394 -23 -41 c-175 -313 -506 -752
-799 -1061 -488 -514 -1017 -909 -1640 -1224 -697 -353 -1400 -552 -2200 -623
-189 -17 -771 -17 -960 0 -1032 92 -1971 418 -2812 978 -819 544 -1520 1322
-1965 2180 -45 88 -83 167 -83 173 0 15 3611 5383 3649 5425 62 68 169 84 245
36z"/>
<path d="M6240 5872 l0 -258 -67 -14 c-392 -76 -682 -332 -774 -679 -58 -224
-46 -473 32 -671 86 -214 257 -394 509 -533 83 -45 232 -109 430 -182 414
-154 542 -279 541 -531 0 -122 -27 -198 -98 -274 -94 -102 -201 -140 -391
-140 -174 0 -284 40 -378 136 -88 90 -131 204 -141 377 l-6 97 -335 0 -335 0
6 -117 c28 -540 306 -893 805 -1019 52 -13 107 -24 123 -24 l29 0 0 -235 0
-235 238 2 237 3 3 231 2 230 78 13 c257 42 491 172 636 353 147 183 204 379
193 667 -10 280 -91 466 -283 651 -146 140 -295 225 -624 355 -355 140 -439
183 -525 270 -93 92 -130 221 -107 375 28 194 140 303 340 332 311 44 522
-182 522 -559 l0 -73 337 0 336 0 -7 118 c-17 307 -86 517 -233 710 -127 166
-306 281 -525 336 l-93 24 -3 261 -2 261 -235 0 -235 0 0 -258z"/>
</g>
</svg>
